# xmcd
#
# Track frame offsets:
#	150
#	22557
#	41409
#	58859
#	68058
#	86748
#
# Disc length: 1347 seconds
#
# Revision: 0
# Processed by: cddbd v1.5.2PL0 Copyright (c) Steve Scherf et al.
# Submitted via: dBpowerAMP V4.0
#
DISCID=41054106
DTITLE=Pete Murray - Chance To Say Goodbye
DYEAR=1900
DGENRE=
TTITLE0=Chance To Say Goodbye
TTITLE1=Miss Colder
TTITLE2=Sugar Ranch
TTITLE3=Small Pieces
TTITLE4=Late Night Pick Up
TTITLE5=Right By Your Side
EXTD=Pete Murray
EXTT0=
EXTT1=
EXTT2=
EXTT3=
EXTT4=
EXTT5=
PLAYORDER=
